<svg width="38" height="38" viewBox="0 0 38 38" fill="none" xmlns="http://www.w3.org/2000/svg">
<g filter="url(#filter0_d_4487_43367)">
<circle cx="19" cy="16" r="13" transform="rotate(-180 19 16)" fill="#444546"/>
</g>
<path fill-rule="evenodd" clip-rule="evenodd" d="M15.4219 10.5483C15.1481 10.2647 14.9966 9.88489 15.0001 9.49063C15.0035 9.09637 15.1616 8.71922 15.4403 8.44042C15.719 8.16162 16.096 8.00348 16.4901 8.00006C16.8842 7.99663 17.2639 8.1482 17.5474 8.42211L23.5599 14.4369C23.8417 14.7189 24 15.1013 24 15.5C24 15.8987 23.8417 16.2811 23.5599 16.5631L17.5474 22.5779C17.2639 22.8518 16.8842 23.0034 16.4901 22.9999C16.096 22.9965 15.719 22.8384 15.4403 22.5596C15.1616 22.2808 15.0035 21.9036 15.0001 21.5094C14.9966 21.1151 15.1481 20.7353 15.4219 20.4517L20.3718 15.5L15.4219 10.5483Z" fill="#F0F0F0"/>
<defs>
<filter id="filter0_d_4487_43367" x="0" y="0" width="38" height="38" filterUnits="userSpaceOnUse" color-interpolation-filters="sRGB">
<feFlood flood-opacity="0" result="BackgroundImageFix"/>
<feColorMatrix in="SourceAlpha" type="matrix" values="0 0 0 0 0 0 0 0 0 0 0 0 0 0 0 0 0 0 127 0" result="hardAlpha"/>
<feOffset dy="3"/>
<feGaussianBlur stdDeviation="3"/>
<feComposite in2="hardAlpha" operator="out"/>
<feColorMatrix type="matrix" values="0 0 0 0 0 0 0 0 0 0 0 0 0 0 0 0 0 0 0.2 0"/>
<feBlend mode="normal" in2="BackgroundImageFix" result="effect1_dropShadow_4487_43367"/>
<feBlend mode="normal" in="SourceGraphic" in2="effect1_dropShadow_4487_43367" result="shape"/>
</filter>
</defs>
</svg>
