<svg width="38" height="38" viewBox="0 0 38 38" fill="none" xmlns="http://www.w3.org/2000/svg">
<g filter="url(#filter0_d_4294_40549)">
<circle cx="19" cy="16" r="13" fill="#444546"/>
</g>
<path fill-rule="evenodd" clip-rule="evenodd" d="M22.5781 21.4517C22.8519 21.7353 23.0034 22.1151 22.9999 22.5094C22.9965 22.9036 22.8384 23.2808 22.5597 23.5596C22.281 23.8384 21.904 23.9965 21.5099 23.9999C21.1158 24.0034 20.7361 23.8518 20.4526 23.5779L14.4401 17.5631C14.1583 17.2811 14 16.8987 14 16.5C14 16.1013 14.1583 15.7189 14.4401 15.4369L20.4526 9.42211C20.7361 9.14819 21.1158 8.99663 21.5099 9.00006C21.904 9.00348 22.281 9.16162 22.5597 9.44042C22.8384 9.71922 22.9965 10.0964 22.9999 10.4906C23.0034 10.8849 22.8519 11.2647 22.5781 11.5483L17.6282 16.5L22.5781 21.4517Z" fill="#F0F0F0"/>
<defs>
<filter id="filter0_d_4294_40549" x="0" y="0" width="38" height="38" filterUnits="userSpaceOnUse" color-interpolation-filters="sRGB">
<feFlood flood-opacity="0" result="BackgroundImageFix"/>
<feColorMatrix in="SourceAlpha" type="matrix" values="0 0 0 0 0 0 0 0 0 0 0 0 0 0 0 0 0 0 127 0" result="hardAlpha"/>
<feOffset dy="3"/>
<feGaussianBlur stdDeviation="3"/>
<feComposite in2="hardAlpha" operator="out"/>
<feColorMatrix type="matrix" values="0 0 0 0 0 0 0 0 0 0 0 0 0 0 0 0 0 0 0.2 0"/>
<feBlend mode="normal" in2="BackgroundImageFix" result="effect1_dropShadow_4294_40549"/>
<feBlend mode="normal" in="SourceGraphic" in2="effect1_dropShadow_4294_40549" result="shape"/>
</filter>
</defs>
</svg>
